<mxfile host="app.diagrams.net" agent="Mozilla/5.0 (Windows NT 10.0; Win64; x64; rv:129.0) Gecko/20100101 Firefox/129.0" version="24.7.10">
  <diagram name="PÃ¡gina-1" id="j6MuJkTMsLmQ1aXYSfne">
    <mxGraphModel dx="956" dy="516" grid="1" gridSize="10" guides="1" tooltips="1" connect="1" arrows="1" fold="1" page="1" pageScale="1" pageWidth="827" pageHeight="1169" math="0" shadow="0">
      <root>
        <mxCell id="0" />
        <mxCell id="1" parent="0" />
        <mxCell id="hdZ4ecEsuRClOm41MBSE-1" value="EncuestaLimitadaRegion" style="swimlane;fontStyle=1;align=center;verticalAlign=top;childLayout=stackLayout;horizontal=1;startSize=26;horizontalStack=0;resizeParent=1;resizeParentMax=0;resizeLast=0;collapsible=1;marginBottom=0;whiteSpace=wrap;html=1;fillColor=#d5e8d4;strokeColor=#82b366;" vertex="1" parent="1">
          <mxGeometry x="40" y="20" width="340" height="100" as="geometry" />
        </mxCell>
        <mxCell id="hdZ4ecEsuRClOm41MBSE-2" value="-List&amp;lt;int&amp;gt; regionesPermitidas" style="text;strokeColor=none;fillColor=none;align=left;verticalAlign=top;spacingLeft=4;spacingRight=4;overflow=hidden;rotatable=0;points=[[0,0.5],[1,0.5]];portConstraint=eastwest;whiteSpace=wrap;html=1;" vertex="1" parent="hdZ4ecEsuRClOm41MBSE-1">
          <mxGeometry y="26" width="340" height="26" as="geometry" />
        </mxCell>
        <mxCell id="hdZ4ecEsuRClOm41MBSE-3" value="" style="line;strokeWidth=1;fillColor=none;align=left;verticalAlign=middle;spacingTop=-1;spacingLeft=3;spacingRight=3;rotatable=0;labelPosition=right;points=[];portConstraint=eastwest;strokeColor=inherit;" vertex="1" parent="hdZ4ecEsuRClOm41MBSE-1">
          <mxGeometry y="52" width="340" height="8" as="geometry" />
        </mxCell>
        <mxCell id="hdZ4ecEsuRClOm41MBSE-4" value="&lt;div&gt;+modificarRegionesPermitidas(List&amp;lt;int&amp;gt;) : : void&lt;/div&gt;&lt;div&gt;+agregarListadoRespuestas(ListadoRespuestas : : void)&lt;br&gt;&lt;/div&gt;" style="text;strokeColor=none;fillColor=none;align=left;verticalAlign=top;spacingLeft=4;spacingRight=4;overflow=hidden;rotatable=0;points=[[0,0.5],[1,0.5]];portConstraint=eastwest;whiteSpace=wrap;html=1;" vertex="1" parent="hdZ4ecEsuRClOm41MBSE-1">
          <mxGeometry y="60" width="340" height="40" as="geometry" />
        </mxCell>
        <mxCell id="hdZ4ecEsuRClOm41MBSE-5" value="EncuestaLimitadaEdad" style="swimlane;fontStyle=1;align=center;verticalAlign=top;childLayout=stackLayout;horizontal=1;startSize=26;horizontalStack=0;resizeParent=1;resizeParentMax=0;resizeLast=0;collapsible=1;marginBottom=0;whiteSpace=wrap;html=1;fillColor=#d5e8d4;strokeColor=#82b366;" vertex="1" parent="1">
          <mxGeometry x="430" y="20" width="340" height="140" as="geometry" />
        </mxCell>
        <mxCell id="hdZ4ecEsuRClOm41MBSE-6" value="&lt;div&gt;-int edadMinima&lt;/div&gt;&lt;div&gt;-int edadMaxima&lt;br&gt;&lt;/div&gt;" style="text;strokeColor=none;fillColor=none;align=left;verticalAlign=top;spacingLeft=4;spacingRight=4;overflow=hidden;rotatable=0;points=[[0,0.5],[1,0.5]];portConstraint=eastwest;whiteSpace=wrap;html=1;" vertex="1" parent="hdZ4ecEsuRClOm41MBSE-5">
          <mxGeometry y="26" width="340" height="44" as="geometry" />
        </mxCell>
        <mxCell id="hdZ4ecEsuRClOm41MBSE-7" value="" style="line;strokeWidth=1;fillColor=none;align=left;verticalAlign=middle;spacingTop=-1;spacingLeft=3;spacingRight=3;rotatable=0;labelPosition=right;points=[];portConstraint=eastwest;strokeColor=inherit;" vertex="1" parent="hdZ4ecEsuRClOm41MBSE-5">
          <mxGeometry y="70" width="340" height="8" as="geometry" />
        </mxCell>
        <mxCell id="hdZ4ecEsuRClOm41MBSE-8" value="&lt;div&gt;+modificarEdadMinima(int) : : void&lt;br&gt;&lt;/div&gt;&lt;div&gt;+modificarEdadMaxima(int) : : void&lt;br&gt;&lt;/div&gt;&lt;div&gt;+agregarListadoRespuestas(ListadoRespuestas) : :&amp;nbsp; void&lt;br&gt;&lt;/div&gt;" style="text;strokeColor=none;fillColor=none;align=left;verticalAlign=top;spacingLeft=4;spacingRight=4;overflow=hidden;rotatable=0;points=[[0,0.5],[1,0.5]];portConstraint=eastwest;whiteSpace=wrap;html=1;" vertex="1" parent="hdZ4ecEsuRClOm41MBSE-5">
          <mxGeometry y="78" width="340" height="62" as="geometry" />
        </mxCell>
        <mxCell id="hdZ4ecEsuRClOm41MBSE-9" value="Encuesta" style="swimlane;fontStyle=1;align=center;verticalAlign=top;childLayout=stackLayout;horizontal=1;startSize=26;horizontalStack=0;resizeParent=1;resizeParentMax=0;resizeLast=0;collapsible=1;marginBottom=0;whiteSpace=wrap;html=1;fillColor=#d5e8d4;strokeColor=#82b366;" vertex="1" parent="1">
          <mxGeometry x="340" y="225" width="340" height="190" as="geometry" />
        </mxCell>
        <mxCell id="hdZ4ecEsuRClOm41MBSE-10" value="-String nombre&lt;br&gt;-List&amp;lt;Pregunta&amp;gt; preguntas&lt;br&gt;-List&amp;lt;ListadoRespuestas&amp;gt; listadosRespuestas" style="text;strokeColor=none;fillColor=none;align=left;verticalAlign=top;spacingLeft=4;spacingRight=4;overflow=hidden;rotatable=0;points=[[0,0.5],[1,0.5]];portConstraint=eastwest;whiteSpace=wrap;html=1;" vertex="1" parent="hdZ4ecEsuRClOm41MBSE-9">
          <mxGeometry y="26" width="340" height="54" as="geometry" />
        </mxCell>
        <mxCell id="hdZ4ecEsuRClOm41MBSE-11" value="" style="line;strokeWidth=1;fillColor=none;align=left;verticalAlign=middle;spacingTop=-1;spacingLeft=3;spacingRight=3;rotatable=0;labelPosition=right;points=[];portConstraint=eastwest;strokeColor=inherit;" vertex="1" parent="hdZ4ecEsuRClOm41MBSE-9">
          <mxGeometry y="80" width="340" height="8" as="geometry" />
        </mxCell>
        <mxCell id="hdZ4ecEsuRClOm41MBSE-12" value="+modificarNombre(String): void&lt;br&gt;+getNombre(): : String&lt;br&gt;+getPreguntas(): : List&amp;lt;Pregunta&amp;gt;&lt;br&gt;+getListadosRespuestas(): : List&amp;lt;ListadoRespuestas&amp;gt;&lt;br&gt;+mostrar(): : String&lt;br&gt;+agregarListadoRespuestas(ListadoRespuestas): void" style="text;strokeColor=none;fillColor=none;align=left;verticalAlign=top;spacingLeft=4;spacingRight=4;overflow=hidden;rotatable=0;points=[[0,0.5],[1,0.5]];portConstraint=eastwest;whiteSpace=wrap;html=1;" vertex="1" parent="hdZ4ecEsuRClOm41MBSE-9">
          <mxGeometry y="88" width="340" height="102" as="geometry" />
        </mxCell>
        <mxCell id="hdZ4ecEsuRClOm41MBSE-13" value="Usuario" style="swimlane;fontStyle=1;align=center;verticalAlign=top;childLayout=stackLayout;horizontal=1;startSize=26;horizontalStack=0;resizeParent=1;resizeParentMax=0;resizeLast=0;collapsible=1;marginBottom=0;whiteSpace=wrap;html=1;fillColor=#dae8fc;strokeColor=#6c8ebf;" vertex="1" parent="1">
          <mxGeometry x="25" y="320" width="220" height="200" as="geometry" />
        </mxCell>
        <mxCell id="hdZ4ecEsuRClOm41MBSE-14" value="-String correo&lt;br&gt;-int edad&lt;br&gt;-int region" style="text;strokeColor=none;fillColor=none;align=left;verticalAlign=top;spacingLeft=4;spacingRight=4;overflow=hidden;rotatable=0;points=[[0,0.5],[1,0.5]];portConstraint=eastwest;whiteSpace=wrap;html=1;" vertex="1" parent="hdZ4ecEsuRClOm41MBSE-13">
          <mxGeometry y="26" width="220" height="54" as="geometry" />
        </mxCell>
        <mxCell id="hdZ4ecEsuRClOm41MBSE-15" value="" style="line;strokeWidth=1;fillColor=none;align=left;verticalAlign=middle;spacingTop=-1;spacingLeft=3;spacingRight=3;rotatable=0;labelPosition=right;points=[];portConstraint=eastwest;strokeColor=inherit;" vertex="1" parent="hdZ4ecEsuRClOm41MBSE-13">
          <mxGeometry y="80" width="220" height="8" as="geometry" />
        </mxCell>
        <mxCell id="hdZ4ecEsuRClOm41MBSE-16" value="+modificarCorreo(String): : void&lt;br&gt;+modificarEdad(int): : void&lt;br&gt;+modificarRegion(int): : void&lt;br&gt;+getCorreo(): : String&lt;br&gt;+getEdad(): : int&lt;br&gt;+getRegion(): : int&lt;br&gt;+contestarEncuesta(Encuesta): : void" style="text;strokeColor=none;fillColor=none;align=left;verticalAlign=top;spacingLeft=4;spacingRight=4;overflow=hidden;rotatable=0;points=[[0,0.5],[1,0.5]];portConstraint=eastwest;whiteSpace=wrap;html=1;" vertex="1" parent="hdZ4ecEsuRClOm41MBSE-13">
          <mxGeometry y="88" width="220" height="112" as="geometry" />
        </mxCell>
        <mxCell id="hdZ4ecEsuRClOm41MBSE-17" value="ListadoRespuestas" style="swimlane;fontStyle=1;align=center;verticalAlign=top;childLayout=stackLayout;horizontal=1;startSize=26;horizontalStack=0;resizeParent=1;resizeParentMax=0;resizeLast=0;collapsible=1;marginBottom=0;whiteSpace=wrap;html=1;fillColor=#fff2cc;strokeColor=#d6b656;" vertex="1" parent="1">
          <mxGeometry x="40" y="620" width="190" height="130" as="geometry" />
        </mxCell>
        <mxCell id="hdZ4ecEsuRClOm41MBSE-18" value="-Usuario usuario&lt;br&gt;-List&amp;lt;int&amp;gt; respuestas" style="text;strokeColor=none;fillColor=none;align=left;verticalAlign=top;spacingLeft=4;spacingRight=4;overflow=hidden;rotatable=0;points=[[0,0.5],[1,0.5]];portConstraint=eastwest;whiteSpace=wrap;html=1;" vertex="1" parent="hdZ4ecEsuRClOm41MBSE-17">
          <mxGeometry y="26" width="190" height="44" as="geometry" />
        </mxCell>
        <mxCell id="hdZ4ecEsuRClOm41MBSE-19" value="" style="line;strokeWidth=1;fillColor=none;align=left;verticalAlign=middle;spacingTop=-1;spacingLeft=3;spacingRight=3;rotatable=0;labelPosition=right;points=[];portConstraint=eastwest;strokeColor=inherit;" vertex="1" parent="hdZ4ecEsuRClOm41MBSE-17">
          <mxGeometry y="70" width="190" height="8" as="geometry" />
        </mxCell>
        <mxCell id="hdZ4ecEsuRClOm41MBSE-20" value="+getUsuario(): : Usuario&lt;br&gt;+getRespuestas(): : List&amp;lt;int&amp;gt;" style="text;strokeColor=none;fillColor=none;align=left;verticalAlign=top;spacingLeft=4;spacingRight=4;overflow=hidden;rotatable=0;points=[[0,0.5],[1,0.5]];portConstraint=eastwest;whiteSpace=wrap;html=1;" vertex="1" parent="hdZ4ecEsuRClOm41MBSE-17">
          <mxGeometry y="78" width="190" height="52" as="geometry" />
        </mxCell>
        <mxCell id="hdZ4ecEsuRClOm41MBSE-21" value="Pregunta" style="swimlane;fontStyle=1;align=center;verticalAlign=top;childLayout=stackLayout;horizontal=1;startSize=26;horizontalStack=0;resizeParent=1;resizeParentMax=0;resizeLast=0;collapsible=1;marginBottom=0;whiteSpace=wrap;html=1;fillColor=#fff2cc;strokeColor=#d6b656;" vertex="1" parent="1">
          <mxGeometry x="380" y="500" width="240" height="220" as="geometry" />
        </mxCell>
        <mxCell id="hdZ4ecEsuRClOm41MBSE-22" value="-String enunciado&lt;br&gt;-String ayuda&lt;br&gt;-boolean esRequerida&lt;br&gt;-List&amp;lt;Alternativa&amp;gt; alternativas" style="text;strokeColor=none;fillColor=none;align=left;verticalAlign=top;spacingLeft=4;spacingRight=4;overflow=hidden;rotatable=0;points=[[0,0.5],[1,0.5]];portConstraint=eastwest;whiteSpace=wrap;html=1;" vertex="1" parent="hdZ4ecEsuRClOm41MBSE-21">
          <mxGeometry y="26" width="240" height="64" as="geometry" />
        </mxCell>
        <mxCell id="hdZ4ecEsuRClOm41MBSE-23" value="" style="line;strokeWidth=1;fillColor=none;align=left;verticalAlign=middle;spacingTop=-1;spacingLeft=3;spacingRight=3;rotatable=0;labelPosition=right;points=[];portConstraint=eastwest;strokeColor=inherit;" vertex="1" parent="hdZ4ecEsuRClOm41MBSE-21">
          <mxGeometry y="90" width="240" height="8" as="geometry" />
        </mxCell>
        <mxCell id="hdZ4ecEsuRClOm41MBSE-24" value="+modificarEnunciado(String): : void&lt;br&gt;+modificarAyuda(String): : void&lt;br&gt;+modificarEsRequerida(boolean): : void&lt;br&gt;+getEnunciado(): : String&lt;br&gt;+getAyuda(): : String&lt;br&gt;+getEsRequerida(): : boolean&lt;br&gt;+getAlternativas(): : List&amp;lt;Alternativa&amp;gt;&lt;br&gt;+mostrar(): : String" style="text;strokeColor=none;fillColor=none;align=left;verticalAlign=top;spacingLeft=4;spacingRight=4;overflow=hidden;rotatable=0;points=[[0,0.5],[1,0.5]];portConstraint=eastwest;whiteSpace=wrap;html=1;" vertex="1" parent="hdZ4ecEsuRClOm41MBSE-21">
          <mxGeometry y="98" width="240" height="122" as="geometry" />
        </mxCell>
        <mxCell id="hdZ4ecEsuRClOm41MBSE-25" value="Alternativa" style="swimlane;fontStyle=1;align=center;verticalAlign=top;childLayout=stackLayout;horizontal=1;startSize=26;horizontalStack=0;resizeParent=1;resizeParentMax=0;resizeLast=0;collapsible=1;marginBottom=0;whiteSpace=wrap;html=1;fillColor=#fff2cc;strokeColor=#d6b656;" vertex="1" parent="1">
          <mxGeometry x="395" y="810" width="210" height="160" as="geometry" />
        </mxCell>
        <mxCell id="hdZ4ecEsuRClOm41MBSE-26" value="-String contenido&lt;br&gt;-String ayuda" style="text;strokeColor=none;fillColor=none;align=left;verticalAlign=top;spacingLeft=4;spacingRight=4;overflow=hidden;rotatable=0;points=[[0,0.5],[1,0.5]];portConstraint=eastwest;whiteSpace=wrap;html=1;" vertex="1" parent="hdZ4ecEsuRClOm41MBSE-25">
          <mxGeometry y="26" width="210" height="44" as="geometry" />
        </mxCell>
        <mxCell id="hdZ4ecEsuRClOm41MBSE-27" value="" style="line;strokeWidth=1;fillColor=none;align=left;verticalAlign=middle;spacingTop=-1;spacingLeft=3;spacingRight=3;rotatable=0;labelPosition=right;points=[];portConstraint=eastwest;strokeColor=inherit;" vertex="1" parent="hdZ4ecEsuRClOm41MBSE-25">
          <mxGeometry y="70" width="210" height="8" as="geometry" />
        </mxCell>
        <mxCell id="hdZ4ecEsuRClOm41MBSE-28" value="+modificarContenido(String): : void&lt;br&gt;+modificarAyuda(String): : void&lt;br&gt;+getContenido(): : String&lt;br&gt;+getAyuda(): : String&lt;br&gt;+mostrar(): : String" style="text;strokeColor=none;fillColor=none;align=left;verticalAlign=top;spacingLeft=4;spacingRight=4;overflow=hidden;rotatable=0;points=[[0,0.5],[1,0.5]];portConstraint=eastwest;whiteSpace=wrap;html=1;" vertex="1" parent="hdZ4ecEsuRClOm41MBSE-25">
          <mxGeometry y="78" width="210" height="82" as="geometry" />
        </mxCell>
        <mxCell id="hdZ4ecEsuRClOm41MBSE-29" value="&quot;es un tipo de&quot;" style="endArrow=block;endSize=16;endFill=0;html=1;rounded=0;exitX=0.439;exitY=1.052;exitDx=0;exitDy=0;exitPerimeter=0;entryX=0.546;entryY=-0.008;entryDx=0;entryDy=0;entryPerimeter=0;" edge="1" parent="1" source="hdZ4ecEsuRClOm41MBSE-8" target="hdZ4ecEsuRClOm41MBSE-9">
          <mxGeometry width="160" relative="1" as="geometry">
            <mxPoint x="710" y="220" as="sourcePoint" />
            <mxPoint x="870" y="220" as="targetPoint" />
          </mxGeometry>
        </mxCell>
        <mxCell id="hdZ4ecEsuRClOm41MBSE-30" value="&quot;es un tipo de&quot;" style="endArrow=block;endSize=16;endFill=0;html=1;rounded=0;exitX=0.531;exitY=1.029;exitDx=0;exitDy=0;exitPerimeter=0;entryX=0.147;entryY=0;entryDx=0;entryDy=0;entryPerimeter=0;" edge="1" parent="1" source="hdZ4ecEsuRClOm41MBSE-4" target="hdZ4ecEsuRClOm41MBSE-9">
          <mxGeometry width="160" relative="1" as="geometry">
            <mxPoint x="253" y="140" as="sourcePoint" />
            <mxPoint x="200" y="195" as="targetPoint" />
          </mxGeometry>
        </mxCell>
        <mxCell id="hdZ4ecEsuRClOm41MBSE-36" value="&quot;contiene&quot;" style="endArrow=block;endSize=16;endFill=0;html=1;rounded=0;exitX=0.132;exitY=1.013;exitDx=0;exitDy=0;exitPerimeter=0;entryX=0.878;entryY=-0.007;entryDx=0;entryDy=0;entryPerimeter=0;verticalAlign=middle;" edge="1" parent="1" source="hdZ4ecEsuRClOm41MBSE-12" target="hdZ4ecEsuRClOm41MBSE-17">
          <mxGeometry x="0.125" width="160" relative="1" as="geometry">
            <mxPoint x="170" y="584" as="sourcePoint" />
            <mxPoint x="330" y="584" as="targetPoint" />
            <mxPoint as="offset" />
          </mxGeometry>
        </mxCell>
        <mxCell id="hdZ4ecEsuRClOm41MBSE-37" value="&quot;contiene&quot;" style="endArrow=block;endSize=16;endFill=0;html=1;rounded=0;exitX=0.391;exitY=1.02;exitDx=0;exitDy=0;exitPerimeter=0;entryX=0.437;entryY=0.008;entryDx=0;entryDy=0;entryPerimeter=0;verticalAlign=middle;" edge="1" parent="1" source="hdZ4ecEsuRClOm41MBSE-12" target="hdZ4ecEsuRClOm41MBSE-21">
          <mxGeometry x="0.0174" y="1" width="160" relative="1" as="geometry">
            <mxPoint x="430" y="430" as="sourcePoint" />
            <mxPoint x="252" y="633" as="targetPoint" />
            <mxPoint as="offset" />
          </mxGeometry>
        </mxCell>
        <mxCell id="hdZ4ecEsuRClOm41MBSE-38" value="&quot;contiene&quot;" style="endArrow=block;endSize=16;endFill=0;html=1;rounded=0;exitX=0.5;exitY=1;exitDx=0;exitDy=0;verticalAlign=middle;" edge="1" parent="1" source="hdZ4ecEsuRClOm41MBSE-21" target="hdZ4ecEsuRClOm41MBSE-25">
          <mxGeometry x="-0.1111" width="160" relative="1" as="geometry">
            <mxPoint x="328" y="750" as="sourcePoint" />
            <mxPoint x="150" y="953" as="targetPoint" />
            <mxPoint as="offset" />
          </mxGeometry>
        </mxCell>
        <mxCell id="hdZ4ecEsuRClOm41MBSE-39" value="&quot;crea&quot;" style="endArrow=block;endSize=16;endFill=0;html=1;rounded=0;exitX=0.614;exitY=1;exitDx=0;exitDy=0;verticalAlign=middle;exitPerimeter=0;entryX=0.642;entryY=-0.002;entryDx=0;entryDy=0;entryPerimeter=0;" edge="1" parent="1" source="hdZ4ecEsuRClOm41MBSE-16" target="hdZ4ecEsuRClOm41MBSE-17">
          <mxGeometry x="-0.1111" width="160" relative="1" as="geometry">
            <mxPoint x="160" y="530" as="sourcePoint" />
            <mxPoint x="170" y="600" as="targetPoint" />
            <mxPoint as="offset" />
          </mxGeometry>
        </mxCell>
        <mxCell id="hdZ4ecEsuRClOm41MBSE-40" value="&quot;pertenece a&quot;" style="endArrow=block;endSize=16;endFill=0;html=1;rounded=0;exitX=0.25;exitY=0;exitDx=0;exitDy=0;verticalAlign=middle;" edge="1" parent="1" source="hdZ4ecEsuRClOm41MBSE-17">
          <mxGeometry x="-0.1111" width="160" relative="1" as="geometry">
            <mxPoint x="20" y="540" as="sourcePoint" />
            <mxPoint x="88" y="520" as="targetPoint" />
            <mxPoint as="offset" />
          </mxGeometry>
        </mxCell>
        <mxCell id="hdZ4ecEsuRClOm41MBSE-41" value="&lt;font style=&quot;font-size: 8px;&quot;&gt;1&lt;/font&gt;" style="text;html=1;align=center;verticalAlign=middle;whiteSpace=wrap;rounded=0;" vertex="1" parent="1">
          <mxGeometry x="450" y="430" width="20" height="10" as="geometry" />
        </mxCell>
        <mxCell id="hdZ4ecEsuRClOm41MBSE-43" value="&lt;font style=&quot;font-size: 8px;&quot;&gt;1&lt;/font&gt;" style="text;html=1;align=center;verticalAlign=middle;whiteSpace=wrap;rounded=0;" vertex="1" parent="1">
          <mxGeometry x="480" y="730" width="20" height="10" as="geometry" />
        </mxCell>
        <mxCell id="hdZ4ecEsuRClOm41MBSE-45" value="&lt;font style=&quot;font-size: 8px;&quot;&gt;1..*&lt;/font&gt;" style="text;html=1;align=center;verticalAlign=middle;whiteSpace=wrap;rounded=0;" vertex="1" parent="1">
          <mxGeometry x="225" y="605" width="20" height="10" as="geometry" />
        </mxCell>
        <mxCell id="hdZ4ecEsuRClOm41MBSE-46" value="*" style="text;html=1;align=center;verticalAlign=middle;whiteSpace=wrap;rounded=0;" vertex="1" parent="1">
          <mxGeometry x="490" y="480" width="20" height="10" as="geometry" />
        </mxCell>
        <mxCell id="hdZ4ecEsuRClOm41MBSE-47" value="*" style="text;html=1;align=center;verticalAlign=middle;whiteSpace=wrap;rounded=0;" vertex="1" parent="1">
          <mxGeometry x="510" y="790" width="20" height="10" as="geometry" />
        </mxCell>
      </root>
    </mxGraphModel>
  </diagram>
</mxfile>
